PathFileType	4	(X/Y/Z)	s06c0403.trc
DataRate	CameraRate	NumFrames	NumMarkers	Units	OrigDataRate	OrigDataStartFrame	OrigNumFrames
200	200	4	48	mm	200	1750	2000
Frame#	Time	racr			lacr			c7			jug			rlel			rdr			llel			ldr			s2			lic			ric			lasi			rasi			rpsi			lpsi			rgt			lgt			rth1			rth2			rth3			rth4			rlfc			rmfc			rsh1			rsh2			rsh3			rsh4			rlmal			rcal			rtoe			rmt5			lth1			lth2			lth4			lth3			llfc			lmfc			llmal			lcal			lmt5			lsh1			lsh2			lsh3			lsh4			ltoe			SBIKE			LBIKE			RBIKE			
		X1	Y1	Z1	X2	Y2	Z2	X3	Y3	Z3	X4	Y4	Z4	X5	Y5	Z5	X6	Y6	Z6	X7	Y7	Z7	X8	Y8	Z8	X9	Y9	Z9	X10	Y10	Z10	X11	Y11	Z11	X12	Y12	Z12	X13	Y13	Z13	X14	Y14	Z14	X15	Y15	Z15	X16	Y16	Z16	X17	Y17	Z17	X18	Y18	Z18	X19	Y19	Z19	X20	Y20	Z20	X21	Y21	Z21	X22	Y22	Z22	X23	Y23	Z23	X24	Y24	Z24	X25	Y25	Z25	X26	Y26	Z26	X27	Y27	Z27	X28	Y28	Z28	X29	Y29	Z29	X30	Y30	Z30	X31	Y31	Z31	X32	Y32	Z32	X33	Y33	Z33	X34	Y34	Z34	X35	Y35	Z35	X36	Y36	Z36	X37	Y37	Z37	X38	Y38	Z38	X39	Y39	Z39	X40	Y40	Z40	X41	Y41	Z41	X42	Y42	Z42	X43	Y43	Z43	X44	Y44	Z44	X45	Y45	Z45	X46	Y46	Z46	X47	Y47	Z47	X48	Y48	Z48	
1750	8.7500	809.736409	1213.285319	-77.330188	815.880039	1216.505717	-401.703435	844.086553	1280.980167	-235.149881	768.979021	1132.726149	-235.380846	593.111231	1121.498274	73.770466	699.940105	953.104650	-28.276580	578.432272	1114.964494	-505.676714	690.294880	941.326695	-425.992315	259.171929	1204.736956	-247.289022	413.527881	1131.456134	-397.010774	381.301486	1128.853345	-67.308167	412.978504	1080.743590	-355.683999	402.274568	1081.003021	-104.799805	296.554016	1228.472338	-208.768446	300.428154	1231.259442	-269.083599	310.948244	1055.066226	-48.337359	383.488623	1083.752915	-425.533845	340.238000	922.311705	-23.687810	373.003142	836.871236	-23.801501	358.731788	751.590645	-35.172352	408.497105	842.468611	-34.731588	361.942353	645.102732	-45.456573	355.029312	619.261838	-153.352709	323.332499	527.028341	-23.030215	319.435415	441.326182	-41.692889	274.998500	366.851241	-47.817352	343.435249	438.478463	-74.552818	243.742112	294.505752	-54.808929	179.014686	288.734210	-103.405526	424.974533	160.902219	-95.581907	326.929525	184.470390	-28.609004	427.591355	978.618360	-441.192816	491.804103	920.716694	-429.931793	517.528526	938.278515	-409.902890	520.743811	835.863866	-431.431401	521.320007	726.631641	-408.820416	513.786130	709.568969	-295.185171	182.731488	576.933714	-382.074256	132.910833	628.240572	-333.459857	158.470835	430.297555	-398.868114	428.491249	670.204105	-426.671520	361.399590	621.411670	-401.559243	273.784781	607.229770	-397.800607	375.880530	601.361413	-370.892939	192.955452	351.958751	-338.048208	-203.643374	865.228146	-210.459780	-50.791432	80.446873	-411.239546	-50.801546	80.101977	-13.855096	
1751	8.7550	810.393808	1213.757807	-80.065115	814.925161	1216.190694	-403.241270	843.448980	1281.221850	-237.281003	769.583187	1132.408697	-236.985458	593.460339	1121.404055	72.489584	700.238196	952.725300	-28.865277	577.030227	1113.625140	-506.236196	690.041533	941.334069	-425.850251	258.535383	1203.394193	-244.885642	411.792512	1132.368032	-397.348340	382.707697	1126.161698	-66.789212	411.811936	1081.067058	-356.750711	403.311036	1078.681939	-104.954043	296.146415	1226.736716	-206.191684	299.315096	1230.348535	-266.369534	311.442179	1051.775357	-48.143480	382.140287	1086.973391	-424.740273	337.382282	918.693770	-23.437014	367.441704	832.526801	-23.837096	350.691643	747.533273	-35.615861	403.139910	836.967751	-35.244042	352.256913	641.675891	-45.977719	344.253180	615.345378	-153.736775	315.336410	523.242093	-23.452560	312.201442	437.526251	-41.758164	268.433351	362.686750	-47.643463	336.051059	434.792709	-75.285706	237.974604	289.871598	-54.569994	173.526647	285.823241	-103.028948	416.422055	152.158432	-95.528725	318.981334	178.033426	-28.525211	428.233662	982.840720	-441.696907	493.894050	926.251453	-431.627719	519.934816	944.369039	-411.403305	524.412266	842.050401	-433.279520	528.044075	732.288550	-409.217586	520.986768	715.656726	-295.329749	189.054847	584.077541	-382.262133	137.971429	634.754261	-333.594400	167.351758	437.356541	-398.991404	436.005713	676.200902	-426.599703	368.416697	627.867841	-401.573475	280.641947	614.162795	-398.062148	382.661511	607.418725	-371.049827	203.266754	359.680280	-338.140202	-203.648369	865.205889	-210.518909	-50.783288	80.510883	-411.331742	-50.785181	80.107750	-13.875827	
1752	8.7600	808.418230	1215.453150	-80.771432	813.945479	1216.066036	-404.813598	842.829385	1281.288580	-239.483203	766.908376	1133.586621	-237.755852	593.756583	1121.167544	71.172515	700.668588	952.299804	-29.345285	575.696109	1112.078842	-506.813125	689.968659	941.129584	-425.217509	257.841319	1202.268443	-242.526431	409.849212	1133.459449	-397.650077	384.277580	1123.429668	-66.731745	410.512316	1081.604468	-357.768037	404.730433	1077.125614	-105.260022	295.737130	1225.066076	-203.624129	298.158175	1229.436842	-263.743273	312.293398	1048.578368	-48.030700	380.568739	1090.161592	-423.911191	334.761475	915.576518	-23.280432	361.552462	828.685500	-24.163774	343.571652	743.859148	-35.724087	397.932858	831.903112	-35.974516	342.950855	638.894962	-46.515098	333.709957	612.530379	-154.234583	307.282683	520.458037	-23.500145	305.424738	434.676388	-41.458947	261.824547	359.337941	-47.379966	328.624910	432.264095	-75.632499	232.317356	286.040759	-54.324089	168.196313	283.835270	-102.878257	407.713374	143.769773	-95.370312	310.900598	172.167995	-28.391954	428.297300	986.964109	-442.388869	495.446704	931.699840	-433.570162	521.453044	950.489310	-413.788252	527.617796	848.139511	-435.251973	534.698541	738.138555	-409.364484	529.044267	721.545313	-294.909281	195.664664	590.516474	-381.965407	143.168183	640.566685	-333.725711	176.845576	443.932330	-399.375482	443.234018	682.230482	-426.445202	375.179580	634.095639	-401.517241	287.593580	620.515766	-397.774981	389.535525	613.781055	-370.828622	213.952351	366.870936	-338.159184	-203.680258	865.216169	-210.468253	-50.768344	80.537753	-411.335325	-50.812428	80.047816	-13.844825	
1753	8.7650	808.689050	1215.764068	-83.323257	812.885434	1215.988077	-406.391896	842.221633	1281.439896	-241.727370	766.926230	1133.486901	-239.556317	593.978578	1120.788327	69.745631	701.150602	951.945125	-29.659595	574.519770	1110.297057	-507.227891	689.904568	940.914978	-424.460713	256.877331	1201.263920	-239.729046	407.904950	1134.674713	-397.917005	385.991801	1121.106802	-66.157377	409.096166	1082.248795	-358.800922	405.566298	1074.331767	-106.177155	295.369644	1223.624424	-201.126600	296.948341	1228.623647	-261.200393	313.451656	1045.452832	-47.831206	378.684815	1093.221239	-423.179283	332.278811	912.924174	-23.014359	356.722245	825.307568	-24.396113	336.015184	741.456654	-35.863786	392.816625	827.441347	-37.138495	333.563241	636.684293	-47.153934	322.482788	611.230013	-154.966093	299.200846	518.371119	-23.602997	298.044421	432.469452	-41.400544	255.135020	356.789655	-47.049831	321.033406	430.461489	-75.512383	226.773535	283.129110	-54.217948	163.141003	282.630248	-102.762813	398.592735	135.715903	-95.057087	302.555373	166.858193	-28.231852	427.540331	990.992165	-443.571751	496.449987	937.148174	-435.579991	522.236739	956.443996	-415.968131	530.290013	854.042008	-437.179737	541.147536	744.262100	-409.888851	536.603925	727.784580	-294.778643	202.376341	596.549754	-381.943202	148.524284	645.591541	-333.444300	186.248651	449.946610	-399.392734	450.300689	688.318946	-426.203574	382.115615	640.245368	-401.359259	294.547939	626.725876	-397.683253	396.336257	620.299059	-370.330606	224.914859	373.678645	-338.247887	-203.692663	865.231208	-210.376761	-50.745859	80.580440	-411.307044	-50.774893	80.108709	-13.835182	
